<?xml version="1.0" encoding="utf-8"?>
<!-- Generator: Adobe Illustrator 24.0.2, SVG Export Plug-In . SVG Version: 6.00 Build 0)  -->
<svg version="1.1" id="Capa_1" xmlns="http://www.w3.org/2000/svg" xmlns:xlink="http://www.w3.org/1999/xlink" x="0px" y="0px"
	 viewBox="0 0 350 350" style="enable-background:new 0 0 350 350;" xml:space="preserve">
<style type="text/css">
	.st0{fill-rule:evenodd;clip-rule:evenodd;fill:url(#SVGID_1_);}
	.st1{fill-rule:evenodd;clip-rule:evenodd;fill:#23201D;}
	.st2{fill-rule:evenodd;clip-rule:evenodd;fill:url(#SVGID_2_);}
	.st3{fill-rule:evenodd;clip-rule:evenodd;fill:url(#SVGID_3_);}
	.st4{fill-rule:evenodd;clip-rule:evenodd;fill:url(#SVGID_4_);}
	.st5{fill:#23201D;}
	.st6{fill:#FFFFFF;}
</style>
<g>
	<g>
		<linearGradient id="SVGID_1_" gradientUnits="userSpaceOnUse" x1="50.6482" y1="46.0653" x2="295.1065" y2="299.9256">
			<stop  offset="0" style="stop-color:#F7F080"/>
			<stop  offset="0.2259" style="stop-color:#F3D65B"/>
			<stop  offset="0.35" style="stop-color:#EBBA41"/>
			<stop  offset="0.4" style="stop-color:#F3D65B"/>
			<stop  offset="0.47" style="stop-color:#F3D65B"/>
			<stop  offset="0.77" style="stop-color:#A97C35"/>
			<stop  offset="0.88" style="stop-color:#F0C94F"/>
			<stop  offset="1" style="stop-color:#F0C94F"/>
		</linearGradient>
		<polygon class="st0" points="175,0 186.5,11.3 199.4,1.7 209.2,14.5 223.3,6.8 231.2,20.8 246.3,15.1 252.1,30.1 267.8,26.6 
			271.6,42.3 287.6,41 289.1,57 305.2,58 304.5,74.1 320.3,77.2 317.3,93.1 332.5,98.4 327.3,113.7 341.6,121.1 334.4,135.5 
			347.6,144.8 338.4,158 350.1,169.1 339.2,180.9 349.3,193.5 336.8,203.7 345,217.6 331.3,226 337.5,240.9 322.7,247.2 
			326.7,262.8 311.2,267.1 313.1,283.1 297.1,285.2 296.7,301.3 280.6,301.1 278,317 262.1,314.5 257.3,329.9 241.8,325.3 
			234.9,339.9 220.3,333.1 211.4,346.6 197.9,337.9 187.2,350 175,339.5 162.8,350 152.1,337.9 138.6,346.6 129.7,333.1 
			115.1,339.9 108.2,325.3 92.7,329.9 87.9,314.5 72,317 69.4,301.1 53.3,301.3 52.9,285.2 36.9,283.1 38.8,267.1 23.3,262.8 
			27.3,247.2 12.5,240.9 18.7,226 5,217.6 13.2,203.7 0.7,193.5 10.8,180.9 -0.1,169.1 11.6,158 2.4,144.8 15.6,135.5 8.4,121.1 
			22.7,113.7 17.5,98.4 32.7,93.1 29.7,77.2 45.5,74.1 44.8,58 60.9,57 62.4,41 78.4,42.3 82.2,26.6 97.9,30.1 103.7,15.1 
			118.8,20.8 126.7,6.8 140.8,14.5 150.6,1.7 163.5,11.3 		"/>
		<path class="st1" d="M175,61.1c28.1,0,53.9,10.2,73.8,27.1c-1.9,0.2-3.8,0.4-5.8,0.6c-18.7-14.8-42.3-23.6-68-23.6
			c-25.7,0-49.3,8.8-68,23.6c-1.9-0.2-3.8-0.4-5.8-0.6C121.1,71.3,146.9,61.1,175,61.1L175,61.1z M248.8,261.8
			c-19.9,16.9-45.6,27.1-73.8,27.1c-28.1,0-53.9-10.2-73.8-27.1c1.9-0.2,3.8-0.4,5.8-0.6c18.7,14.8,42.3,23.6,68,23.6
			c25.7,0,49.3-8.8,68-23.6C244.9,261.4,246.9,261.6,248.8,261.8z"/>
		<path class="st1" d="M175,25.6c41.2,0,78.6,16.7,105.6,43.7c27,27,43.7,64.4,43.7,105.6c0,41.2-16.7,78.6-43.7,105.6
			c-27,27-64.4,43.7-105.6,43.7s-78.6-16.7-105.6-43.7c-27-27-43.7-64.4-43.7-105.6c0-41.2,16.7-78.6,43.7-105.6
			C96.4,42.4,133.8,25.6,175,25.6L175,25.6z M277.7,72.3C251.4,46,215.1,29.7,175,29.7S98.6,46,72.3,72.3
			C46,98.6,29.7,134.9,29.7,175c0,40.1,16.3,76.4,42.5,102.7c26.3,26.3,62.6,42.5,102.7,42.5s76.4-16.3,102.7-42.5
			c26.3-26.3,42.5-62.6,42.5-102.7C320.3,134.9,304,98.6,277.7,72.3z"/>
		<linearGradient id="SVGID_2_" gradientUnits="userSpaceOnUse" x1="29.7447" y1="174.9987" x2="320.257" y2="174.9987">
			<stop  offset="0" style="stop-color:#D84C2F"/>
			<stop  offset="0.851" style="stop-color:#A01605"/>
		</linearGradient>
		<path class="st2" d="M290.1,263.7c-35.5-5.8-74.3-9-115.1-9s-79.6,3.2-115.1,9C41,239.1,29.7,208.4,29.7,175S41,110.9,59.9,86.3
			c35.5,5.8,74.3,9,115.1,9c40.7,0,79.6-3.2,115.1-9c18.9,24.5,30.2,55.3,30.2,88.7C320.3,208.4,309,239.1,290.1,263.7z"/>
		<g>
			<linearGradient id="SVGID_3_" gradientUnits="userSpaceOnUse" x1="83.1721" y1="244.6569" x2="266.8292" y2="244.6569">
				<stop  offset="0" style="stop-color:#F7F080"/>
				<stop  offset="0.2259" style="stop-color:#F3D65B"/>
				<stop  offset="0.35" style="stop-color:#EBBA41"/>
				<stop  offset="0.4" style="stop-color:#F3D65B"/>
				<stop  offset="0.47" style="stop-color:#F3D65B"/>
				<stop  offset="0.77" style="stop-color:#A97C35"/>
				<stop  offset="0.88" style="stop-color:#F0C94F"/>
				<stop  offset="1" style="stop-color:#F0C94F"/>
			</linearGradient>
			<path class="st3" d="M83.2,249.8c28-6.6,59.1-10.3,91.8-10.3s63.8,3.7,91.8,10.3c-28.7-4.5-59.6-7-91.8-7
				C142.8,242.8,111.9,245.3,83.2,249.8z"/>
			<linearGradient id="SVGID_4_" gradientUnits="userSpaceOnUse" x1="83.1721" y1="105.3431" x2="266.8292" y2="105.3431">
				<stop  offset="0" style="stop-color:#F7F080"/>
				<stop  offset="0.2259" style="stop-color:#F3D65B"/>
				<stop  offset="0.35" style="stop-color:#EBBA41"/>
				<stop  offset="0.4" style="stop-color:#F3D65B"/>
				<stop  offset="0.47" style="stop-color:#F3D65B"/>
				<stop  offset="0.77" style="stop-color:#A97C35"/>
				<stop  offset="0.88" style="stop-color:#F0C94F"/>
				<stop  offset="1" style="stop-color:#F0C94F"/>
			</linearGradient>
			<path class="st4" d="M83.2,100.2c28,6.6,59.1,10.3,91.8,10.3s63.8-3.7,91.8-10.3c-28.7,4.5-59.6,7-91.8,7
				C142.8,107.2,111.9,104.7,83.2,100.2z"/>
		</g>
		<g>
			<g>
				<polygon class="st1" points="156.1,76.4 157.4,80.4 161.6,80.4 158.2,82.9 159.5,87 156.1,84.5 152.6,87 153.9,82.9 150.5,80.4 
					154.7,80.4 				"/>
				<polygon class="st1" points="193.9,76.4 195.3,80.4 199.5,80.4 196.1,82.9 197.4,87 193.9,84.5 190.5,87 191.8,82.9 188.4,80.4 
					192.6,80.4 				"/>
			</g>
			<g>
				<g>
					<polygon class="st1" points="156.1,261.7 157.4,265.8 161.6,265.8 158.2,268.2 159.5,272.3 156.1,269.8 152.6,272.3 
						153.9,268.2 150.5,265.8 154.7,265.8 					"/>
					<polygon class="st1" points="193.9,261.7 195.3,265.8 199.5,265.8 196.1,268.2 197.4,272.3 193.9,269.8 190.5,272.3 
						191.8,268.2 188.4,265.8 192.6,265.8 					"/>
				</g>
			</g>
			<g>
				<g>
					<path class="st5" d="M178.4,83h-6.8l-0.6,1.5l-0.1,0.3h1.3c0,0,0,0,0,0v-0.2v-0.4c0-0.1,0.1-0.2,0.2-0.2c0.1,0,0.2,0.1,0.2,0.2
						v0.4v0.2c0,0,0,0,0,0h2.2c0,0,0,0,0,0v-0.2v-0.4c0-0.1,0.1-0.2,0.2-0.2c0.1,0,0.2,0.1,0.2,0.2v0.4v0.2c0,0,0,0,0,0h2.2
						c0,0,0,0,0,0v-0.2v-0.4c0-0.1,0.1-0.2,0.2-0.2c0.1,0,0.2,0.1,0.2,0.2v0.4v0.2c0,0,0,0,0,0h1.3l-0.1-0.3L178.4,83z"/>
					<path class="st5" d="M184.2,77.3c0-0.1-0.2-0.2-0.3-0.2c-0.6,0-1.1,0-1.7,0c-0.1,0-0.3,0.1-0.3,0.2c-0.1,0.2-0.1,0.3-0.1,0.5
						c-0.8-1.5-1.6-3.1-1.6-3.1c-0.1-0.2-0.3-0.4-0.5-0.4c-1.5-0.3-3.1-0.4-4.6-0.4c-1.5,0-3.1,0.1-4.6,0.4c-0.2,0-0.4,0.2-0.5,0.4
						c0,0-0.8,1.6-1.6,3.1c0-0.1-0.1-0.3-0.1-0.5c0-0.1-0.2-0.2-0.3-0.2c-0.6,0-1.1,0-1.7,0c-0.1,0-0.3,0.1-0.3,0.2
						c-0.2,0.5-0.2,0.8,0,1.3c0,0.1,0.2,0.2,0.3,0.2c0.6,0,1.1,0,1.7,0c0,0,0,0,0,0.1c-0.4,0.1-0.6,0.4-0.6,0.8v3.7v0.2v1.9
						c0,0.2,0.2,0.4,0.4,0.4h2.1c0.2,0,0.4-0.2,0.4-0.4v-1h0.3l0.7-1.8c0-0.1,0.1-0.1,0.2-0.1h7.1c0.1,0,0.2,0.1,0.2,0.1l0.7,1.8
						h0.3v1c0,0.2,0.2,0.4,0.4,0.4h2.1c0.2,0,0.4-0.2,0.4-0.4v-1.9v-0.2v-3.7c0-0.4-0.3-0.7-0.6-0.8c0,0,0,0,0-0.1
						c0.6,0,1.1,0,1.7,0c0.1,0,0.3-0.1,0.3-0.2C184.4,78.1,184.4,77.8,184.2,77.3z M170.8,75.2c0,0,1-0.3,4.2-0.3
						c3.2,0,4.2,0.3,4.2,0.3l1.5,3.6h-11.4L170.8,75.2z M168.9,81.4v-1.2h2.6l0.8,1.2H168.9z M181.1,81.4h-3.3l0.8-1.2h2.6V81.4
						L181.1,81.4z"/>
				</g>
				<g>
				</g>
				<g>
				</g>
				<g>
				</g>
				<g>
				</g>
				<g>
				</g>
				<g>
				</g>
				<g>
				</g>
				<g>
				</g>
				<g>
				</g>
				<g>
				</g>
				<g>
				</g>
				<g>
				</g>
				<g>
				</g>
				<g>
				</g>
				<g>
				</g>
			</g>
			<g>
				<g>
					<path class="st5" d="M178.4,272.5h-6.8l-0.6,1.5l-0.1,0.3h1.3c0,0,0,0,0,0v-0.2v-0.4c0-0.1,0.1-0.2,0.2-0.2
						c0.1,0,0.2,0.1,0.2,0.2v0.4v0.2c0,0,0,0,0,0h2.2c0,0,0,0,0,0v-0.2v-0.4c0-0.1,0.1-0.2,0.2-0.2c0.1,0,0.2,0.1,0.2,0.2v0.4v0.2
						c0,0,0,0,0,0h2.2c0,0,0,0,0,0v-0.2v-0.4c0-0.1,0.1-0.2,0.2-0.2s0.2,0.1,0.2,0.2v0.4v0.2c0,0,0,0,0,0h1.3l-0.1-0.3L178.4,272.5z
						"/>
					<path class="st5" d="M184.2,266.7c0-0.1-0.2-0.2-0.3-0.2c-0.6,0-1.1,0-1.7,0c-0.1,0-0.3,0.1-0.3,0.2c-0.1,0.2-0.1,0.3-0.1,0.5
						c-0.8-1.5-1.6-3.1-1.6-3.1c-0.1-0.2-0.3-0.4-0.5-0.4c-1.5-0.3-3.1-0.4-4.6-0.4c-1.5,0-3.1,0.1-4.6,0.4c-0.2,0-0.4,0.2-0.5,0.4
						c0,0-0.8,1.6-1.6,3.1c0-0.1-0.1-0.3-0.1-0.5c0-0.1-0.2-0.2-0.3-0.2c-0.6,0-1.1,0-1.7,0c-0.1,0-0.3,0.1-0.3,0.2
						c-0.2,0.5-0.2,0.8,0,1.3c0,0.1,0.2,0.2,0.3,0.2c0.6,0,1.1,0,1.7,0c0,0,0,0,0,0.1c-0.4,0.1-0.6,0.4-0.6,0.8v3.7v0.2v1.9
						c0,0.2,0.2,0.4,0.4,0.4h2.1c0.2,0,0.4-0.2,0.4-0.4v-1h0.3l0.7-1.8c0-0.1,0.1-0.1,0.2-0.1h7.1c0.1,0,0.2,0.1,0.2,0.1l0.7,1.8
						h0.3v1c0,0.2,0.2,0.4,0.4,0.4h2.1c0.2,0,0.4-0.2,0.4-0.4v-1.9v-0.2v-3.7c0-0.4-0.3-0.7-0.6-0.8c0,0,0,0,0-0.1
						c0.6,0,1.1,0,1.7,0c0.1,0,0.3-0.1,0.3-0.2C184.4,267.5,184.4,267.2,184.2,266.7z M170.8,264.6c0,0,1-0.3,4.2-0.3
						s4.2,0.3,4.2,0.3l1.5,3.6h-11.4L170.8,264.6z M168.9,270.9v-1.2h2.6l0.8,1.2H168.9z M181.1,270.9h-3.3l0.8-1.2h2.6V270.9
						L181.1,270.9z"/>
				</g>
				<g>
				</g>
				<g>
				</g>
				<g>
				</g>
				<g>
				</g>
				<g>
				</g>
				<g>
				</g>
				<g>
				</g>
				<g>
				</g>
				<g>
				</g>
				<g>
				</g>
				<g>
				</g>
				<g>
				</g>
				<g>
				</g>
				<g>
				</g>
				<g>
				</g>
			</g>
		</g>
	</g>
	<g>
		<g>
			<path class="st6" d="M78.7,129.1c3.3,0.4,5.9,1.7,7.9,3.8c1.8,2,2.7,4.4,2.7,7.2c0,2.4,0,3.6,0,5.9c0,2.7-1,4.9-3.1,6.7
				c-2.1,1.8-4.6,2.7-7.5,2.5c-1.6-0.1-2.3-0.1-3.9-0.2c0,5.3,0,10.7,0,16c-2.7,0-4.1,0-6.7,0c0-14.5,0-28.9,0-43.4
				C71.6,128.1,75.1,128.6,78.7,129.1z M82.7,139.6c0-1.1-0.4-2-1.1-2.7c-0.7-0.7-1.6-1.2-2.8-1.3c-1.6-0.2-2.4-0.3-4.1-0.4
				c0,4.5,0,9.1,0,13.6c1.6,0.1,2.4,0.2,4.1,0.3c1.1,0.1,2-0.2,2.7-0.9c0.8-0.7,1.1-1.5,1.1-2.5C82.7,143.2,82.7,142,82.7,139.6z"/>
			<path class="st6" d="M105.3,132c3.8,0.3,6.6,1.5,8.3,3.4c1.6,1.7,2.3,3.9,2.3,6.7c0,2.2,0,3.3,0,5.6c0,2.7-1.2,5-3.6,6.8
				c1.7,5.6,3.3,11.3,5,16.9c-2.9,0-4.4,0-7.3,0c-1.4-4.9-2.7-9.9-4.1-14.8c-0.2,0-0.4,0-0.6,0c-1.6-0.1-2.3-0.1-3.9-0.1
				c0,5,0,9.9,0,14.9c-2.7,0-4.1,0-6.8,0c0-13.4,0-26.8,0-40.3C98.2,131.3,101.8,131.6,105.3,132z M109.4,141.7
				c0-2.3-1.3-3.5-3.9-3.7c-1.6-0.1-2.5-0.2-4.1-0.3c0,4.2,0,8.5,0,12.7c1.6,0.1,2.5,0.1,4.1,0.2c1.1,0.1,2-0.2,2.7-0.9
				c0.8-0.6,1.1-1.4,1.1-2.3C109.4,145.1,109.4,144,109.4,141.7z"/>
			<path class="st6" d="M132.8,133.5c3,0.2,5.5,1.2,7.6,3c2.1,1.8,3.1,3.9,3.1,6.4c0,6.7,0,13.4,0,20.2c0,2.5-1.1,4.5-3.2,6.2
				c-2.1,1.7-4.6,2.6-7.6,2.6c-3,0-5.5-0.9-7.6-2.7c-2.1-1.8-3.1-3.9-3.1-6.5c0-6.9,0-13.8,0-20.8c0-2.5,1.1-4.6,3.2-6.3
				C127.3,134,129.9,133.3,132.8,133.5z M136.5,142.4c0-0.9-0.4-1.7-1.1-2.3s-1.7-1-2.7-1.1c-1.1-0.1-2,0.2-2.8,0.8
				c-0.8,0.6-1.1,1.3-1.1,2.2c0,6.9,0,13.7,0,20.6c0,0.9,0.4,1.7,1.1,2.3c0.8,0.6,1.7,1,2.8,1c1.1,0,2-0.3,2.7-0.9s1.1-1.4,1.1-2.3
				C136.5,156,136.5,149.2,136.5,142.4z"/>
			<path class="st6" d="M170.9,162.7c0,2.4-1,4.5-3.1,6.2c-2.1,1.7-4.6,2.6-7.6,2.6c-3.6,0-7.1,0-10.7,0c0-12.3,0-24.5,0-36.8
				c3.6,0.1,7.1,0.2,10.7,0.3c3,0.1,5.5,0.9,7.6,2.6c2.1,1.7,3.1,3.8,3.1,6.1C170.9,150,170.9,156.3,170.9,162.7z M156.4,165.9
				c1.6,0,2.5,0,4.1,0c1.1,0,2-0.3,2.7-0.9c0.7-0.6,1.1-1.4,1.1-2.2c0-6.4,0-12.7,0-19.1c0-0.9-0.4-1.6-1.1-2.3
				c-0.8-0.6-1.7-1-2.7-1c-1.6,0-2.5,0-4.1-0.1C156.4,148.9,156.4,157.4,156.4,165.9z"/>
			<path class="st6" d="M187.6,171.8c-3,0-5.5-0.8-7.6-2.5c-2.1-1.7-3.1-3.7-3.1-6.1c0-9.4,0-18.8,0-28.1c2.7,0,4,0,6.7-0.1
				c0,9.4,0,18.8,0,28.1c0,0.9,0.4,1.6,1.2,2.2c0.8,0.6,1.7,0.9,2.8,0.9c1.1,0,2-0.3,2.8-0.9c0.8-0.6,1.1-1.4,1.1-2.2
				c0-9.4,0-18.8,0-28.2c2.8-0.1,4.3-0.1,7.1-0.2c0,9.5,0,19,0,28.5c0,2.5-1.1,4.6-3.2,6.2C193.1,171,190.6,171.8,187.6,171.8z"/>
			<path class="st6" d="M215.1,171.8c-3,0-5.5-0.9-7.6-2.6c-2.1-1.7-3.1-3.8-3.1-6.2c0-6.7,0-13.5,0-20.2c0-2.5,1.1-4.6,3.2-6.4
				c2.1-1.8,4.6-2.8,7.6-3c3-0.2,5.5,0.5,7.6,2.2c2.1,1.6,3.1,3.7,3.1,6.3c0,1.7,0,2.6,0,4.4c-2.8,0.1-4.2,0.2-7,0.3
				c0-1.8,0-2.7,0-4.4c0-0.9-0.4-1.7-1.1-2.3c-0.8-0.6-1.7-0.9-2.8-0.8c-1.1,0.1-2,0.4-2.7,1.1c-0.8,0.7-1.1,1.4-1.1,2.3
				c0,6.8,0,13.6,0,20.4c0,0.9,0.4,1.6,1.1,2.3c0.8,0.6,1.7,0.9,2.7,0.9c1.1,0,2-0.3,2.8-1c0.8-0.6,1.1-1.4,1.1-2.3
				c0-2.1,0-3.1,0-5.2c2.8-0.1,4.2-0.1,7-0.2c0,2.1,0,3.2,0,5.3c0,2.5-1.1,4.7-3.2,6.5C220.6,170.9,218.1,171.8,215.1,171.8z"/>
			<path class="st6" d="M237.7,138.1c-2.9,0.2-4.3,0.3-7.2,0.5c0-2.3,0-3.5,0-5.8c7.1-0.6,14.1-1.2,21.2-1.9c0,2.4,0,3.7,0,6.1
				c-2.9,0.3-4.3,0.4-7.2,0.6c0,11.2,0,22.4,0,33.6c-2.7,0-4.1,0-6.8,0C237.7,160.2,237.7,149.2,237.7,138.1z"/>
			<path class="st6" d="M267,128.5c3-0.4,5.5,0.3,7.6,2c2.1,1.7,3.1,4.1,3.1,6.9c0,7.9,0,15.8,0,23.7c0,2.9-1,5.4-3.1,7.4
				c-2.1,2-4.6,3-7.6,3c-3,0-5.5-1-7.6-2.8c-2.1-1.9-3.1-4.2-3.1-6.9c0-7.4,0-14.8,0-22.3c0-2.7,1.1-5.1,3.1-7.3
				C261.6,130.2,264.1,128.9,267,128.5z M270.7,138.1c0-1-0.4-1.8-1.1-2.5c-0.8-0.6-1.7-0.9-2.7-0.8c-1.1,0.1-2,0.6-2.8,1.3
				c-0.8,0.8-1.1,1.7-1.1,2.7c0,7.6,0,15.2,0,22.7c0,1,0.4,1.8,1.1,2.5c0.8,0.7,1.7,1,2.8,1c1.1,0,2-0.4,2.7-1.1
				c0.8-0.7,1.1-1.6,1.1-2.6C270.7,153.6,270.7,145.8,270.7,138.1z"/>
			<path class="st6" d="M78.1,207.8c0,2.8-1,5.3-3.1,7.5c-2.1,2.2-4.6,3.6-7.5,4c-3.5,0.5-7.1,1-10.6,1.6c0-15,0-30,0-45
				c3.5,0,7.1-0.1,10.6-0.1c3,0,5.5,1,7.5,2.9c2.1,2,3.1,4.3,3.1,7C78.1,193.2,78.1,200.5,78.1,207.8z M63.6,213.3
				c1.6-0.2,2.4-0.3,4.1-0.5c1.1-0.1,2-0.6,2.7-1.4c0.7-0.8,1.1-1.7,1.1-2.7c0-7.5,0-15,0-22.5c0-1-0.4-1.9-1.1-2.6
				c-0.7-0.7-1.6-1.1-2.7-1c-1.6,0-2.4,0.1-4.1,0.1C63.6,192.9,63.6,203.1,63.6,213.3z"/>
			<path class="st6" d="M84,217.2c0-13.8,0-27.6,0-41.4c6.4,0,12.8-0.1,19.3-0.1c0,2.4,0,3.6,0,6c-4.2,0.1-8.3,0.2-12.5,0.2
				c0,3.7,0,7.4,0,11.1c3.7-0.2,5.5-0.3,9.1-0.4c0,2.4,0,3.6,0,6c-3.7,0.2-5.5,0.3-9.1,0.6c0,3.7,0,7.4,0,11.1
				c4.2-0.4,8.3-0.8,12.5-1.1c0,2.4,0,3.6,0,6C96.8,215.7,90.4,216.4,84,217.2z"/>
			<path class="st6" d="M130.4,203.8c0.1,2.6-0.8,4.9-2.4,6.8c-1.1,1.3-2.7,2.3-4.7,3c-1.1,0.4-2.3,0.6-3.8,0.7
				c-2.7,0.2-4.9-0.2-6.6-1.2c-1.4-0.8-2.6-2-3.5-3.5c-0.8-1.5-1.3-3.4-1.5-5.4c2.6-0.3,3.9-0.5,6.5-0.8c0.3,2.2,1,3.8,2.1,4.7
				c0.8,0.7,1.8,1,2.8,0.9c1.5-0.1,2.7-0.8,3.6-2.1c0.5-0.6,0.7-1.5,0.7-2.6c0-1.6-0.9-3.2-2.5-4.6c-1.3-1-3.4-2.5-6-4.6
				c-2.2-1.8-3.9-3.4-4.8-4.9c-1-1.6-1.4-3.5-1.5-5.4c-0.1-2.8,1.6-6.6,4.1-8.1c1.7-1.1,3.8-1.6,6.3-1.7c2.4,0,4.5,0.4,6.2,1.3
				c1.3,0.7,2.4,1.7,3.3,2.9c0.8,1.3,1.3,2.7,1.5,4.3c-2.6,0.4-3.9,0.7-6.5,1.1c-0.2-1.6-0.7-2.8-1.6-3.6c-0.6-0.6-1.5-0.9-2.7-0.9
				c-1.2,0-2.2,0.5-2.8,1.4c-0.5,0.8-0.8,1.7-0.8,2.8c0,1.8,0.9,3.5,2.7,5.3c0.7,0.7,1.7,1.5,3,2.3c1.6,1.1,2.6,1.8,3.1,2.2
				c1.7,1.4,3,2.7,3.9,4c0.4,0.6,0.8,1.2,1,1.7C130,201.5,130.3,202.7,130.4,203.8z"/>
			<path class="st6" d="M142.3,181.1c-2.9,0-4.3,0-7.2,0.1c0-2.3,0-3.4,0-5.7c7.1,0,14.1,0,21.2,0c0,2.2,0,3.3,0,5.5
				c-2.9,0-4.3,0-7.2,0c0,10.4,0,20.8,0,31.2c-2.7,0.1-4.1,0.1-6.8,0.2C142.3,202.1,142.3,191.6,142.3,181.1z"/>
			<path class="st6" d="M164.3,203.6c-0.7,3.4-1,5-1.7,8.4c-2.8,0-4.2,0.1-7.1,0.1c2.5-12.2,5.1-24.4,7.7-36.6c3.7,0,5.6,0,9.4,0
				c2.5,12.1,5,24.3,7.6,36.4c-2.9,0-4.3,0-7.1,0c-0.6-3.3-1-5-1.6-8.4C168.5,203.5,167.1,203.5,164.3,203.6z M167.8,183.8
				c-0.8,4.8-1.7,9.6-2.5,14.4c2,0,3,0,5,0C169.5,193.4,168.7,188.6,167.8,183.8z"/>
			<path class="st6" d="M195.6,212.7c-3-0.1-5.5-1-7.6-2.7c-2.1-1.7-3.1-3.8-3.1-6.2c0-6.6,0-13.3,0-19.9c0-2.4,1.1-4.5,3.2-6.2
				c2.1-1.7,4.7-2.5,7.6-2.5c3,0,5.5,0.9,7.6,2.6c2.1,1.7,3.1,3.8,3.1,6.3c0,1.7,0,2.5,0,4.2c-2.8,0-4.2-0.1-7-0.1
				c0-1.7,0-2.6,0-4.3c0-0.9-0.4-1.6-1.2-2.3c-0.8-0.6-1.7-0.9-2.8-1c-1.1,0-2,0.3-2.8,0.9c-0.8,0.6-1.1,1.4-1.1,2.2
				c0,6.7,0,13.4,0,20c0,0.9,0.4,1.6,1.1,2.3c0.8,0.6,1.7,1,2.8,1c1.1,0,2-0.3,2.8-0.8c0.8-0.6,1.2-1.3,1.2-2.2c0-2,0-3.1,0-5.1
				c2.8,0.1,4.2,0.1,7,0.2c0,2.1,0,3.1,0,5.2c0,2.5-1.1,4.5-3.2,6.1C201,212,198.5,212.8,195.6,212.7z"/>
			<path class="st6" d="M218.9,204.6c-0.7,3.4-1,5.2-1.6,8.6c-2.8-0.2-4.2-0.2-7.1-0.4c2.6-12.4,5.1-24.8,7.7-37.2
				c3.7,0,5.6,0,9.3,0c2.5,12.9,5.1,25.9,7.5,38.8c-2.9-0.2-4.3-0.3-7.1-0.6c-0.6-3.6-1-5.3-1.6-8.9
				C223.2,204.8,221.7,204.8,218.9,204.6z M222.5,184.3c-0.8,5-1.7,9.9-2.5,14.9c2,0.1,3,0.1,5,0.2
				C224.1,194.3,223.3,189.3,222.5,184.3z"/>
			<path class="st6" d="M261.7,207.3c0,2.7-1,5-3.1,6.7c-2.1,1.7-4.6,2.4-7.5,2.1c-3.5-0.4-7.1-0.7-10.6-1c0-13.1,0-26.2,0-39.3
				c3.5,0,7.1,0,10.6,0.1c3,0,5.5,1,7.5,2.9c2.1,1.9,3.1,4.3,3.1,7C261.7,192.8,261.7,200,261.7,207.3z M247.2,209.6
				c1.6,0.1,2.5,0.2,4.1,0.4c1.1,0.1,2-0.2,2.7-0.8c0.7-0.6,1.1-1.4,1.1-2.4c0-7.1,0-14.2,0-21.3c0-1-0.4-1.8-1.1-2.5
				c-0.8-0.7-1.7-1.1-2.7-1.1c-1.6,0-2.4-0.1-4.1-0.1C247.2,191.1,247.2,200.4,247.2,209.6z"/>
			<path class="st6" d="M278.2,175.3c3,0,5.5,1.1,7.6,3.2c2.1,2.1,3.1,4.7,3.1,7.7c0,8.2,0,16.4,0,24.5c0,3-1,5.4-3.1,7.2
				c-2.1,1.8-4.6,2.4-7.6,2c-3-0.4-5.5-1.8-7.6-4c-2.1-2.2-3.1-4.7-3.1-7.5c0-7.7,0-15.3,0-23c0-2.8,1-5.1,3.1-7.1
				C272.8,176.3,275.3,175.3,278.2,175.3z M281.9,185.7c0-1.1-0.4-2-1.1-2.7c-0.7-0.8-1.7-1.1-2.7-1.2c-1.1,0-2,0.3-2.7,1
				c-0.8,0.7-1.1,1.6-1.1,2.6c0,7.8,0,15.7,0,23.5c0,1,0.4,1.9,1.1,2.7c0.8,0.8,1.7,1.3,2.7,1.4c1.1,0.1,2-0.1,2.7-0.8
				c0.7-0.6,1.1-1.5,1.1-2.5C281.9,201.8,281.9,193.8,281.9,185.7z"/>
		</g>
	</g>
	<g>
		<g>
			<path d="M118.1,51.7c0.8-0.3,1.6-0.3,2.3,0.1c0.6,0.3,1,0.8,1.3,1.5c0.2,0.6,0.3,0.9,0.5,1.5c0.2,0.7,0.2,1.4-0.2,2
				c-0.3,0.7-0.9,1.1-1.6,1.4c-0.4,0.1-0.6,0.2-1,0.3c0.5,1.6,0.8,2.4,1.4,3.9c-0.6,0.2-1,0.3-1.6,0.6c-1.5-4.1-2.2-6.2-3.7-10.4
				C116.5,52.3,117,52.1,118.1,51.7z M120,53.9c-0.1-0.3-0.3-0.5-0.5-0.6s-0.5-0.1-0.8,0c-0.4,0.1-0.6,0.2-1,0.4
				c0.5,1.3,0.7,2,1.2,3.3c0.4-0.1,0.6-0.2,1-0.3c0.3-0.1,0.5-0.3,0.6-0.5c0.1-0.2,0.1-0.5,0.1-0.7C120.3,54.8,120.2,54.5,120,53.9z
				"/>
			<path d="M124.9,49.5c1-0.3,1.8-0.2,2.4,0.1c0.5,0.3,0.9,0.9,1.1,1.6c0.2,0.6,0.3,0.9,0.4,1.5c0.2,0.8,0.1,1.5-0.4,2.2
				c1,1.7,1.5,2.6,2.5,4.3c-0.7,0.2-1.1,0.3-1.8,0.5c-0.9-1.5-1.3-2.2-2.2-3.7c0,0-0.1,0-0.2,0c-0.4,0.1-0.6,0.2-1,0.3
				c0.5,1.6,0.7,2.4,1.2,4c-0.7,0.2-1,0.3-1.6,0.5c-1.3-4.2-2-6.3-3.3-10.5C123.3,50,123.8,49.8,124.9,49.5z M126.7,51.8
				c-0.2-0.6-0.6-0.8-1.3-0.6c-0.4,0.1-0.6,0.2-1,0.3c0.4,1.3,0.6,2,1,3.4c0.4-0.1,0.6-0.2,1-0.3c0.3-0.1,0.5-0.2,0.6-0.5
				c0.1-0.2,0.2-0.5,0.1-0.7C127,52.7,126.9,52.4,126.7,51.8z"/>
			<path d="M132,47.4c0.8-0.2,1.5-0.1,2.2,0.3c0.7,0.4,1.1,0.9,1.2,1.6c0.5,2.3,0.8,3.5,1.4,5.9c0.2,0.7,0,1.4-0.3,2
				c-0.4,0.6-1,1-1.7,1.2c-0.7,0.2-1.4,0.1-2-0.3c-0.6-0.4-1.1-0.9-1.2-1.6c-0.6-2.3-0.9-3.5-1.6-5.8c-0.2-0.7-0.1-1.4,0.3-2
				C130.6,48.1,131.2,47.6,132,47.4z M133.6,49.7c-0.1-0.3-0.2-0.5-0.5-0.6c-0.2-0.1-0.5-0.2-0.8-0.1c-0.3,0.1-0.5,0.2-0.6,0.4
				s-0.2,0.5-0.1,0.7c0.6,2.3,0.9,3.5,1.5,5.8c0.1,0.3,0.2,0.4,0.5,0.6s0.5,0.2,0.7,0.1c0.3-0.1,0.5-0.2,0.6-0.4s0.2-0.5,0.1-0.7
				C134.4,53.2,134.1,52.1,133.6,49.7z"/>
			<path d="M143.5,53.6c0.1,0.7,0,1.4-0.4,2c-0.4,0.6-1,1-1.7,1.1c-1,0.2-1.6,0.3-2.6,0.6c-1-4.3-1.5-6.5-2.4-10.8
				c1.1-0.2,1.7-0.4,2.8-0.6c0.8-0.2,1.5,0,2.1,0.4c0.6,0.4,1,1,1.2,1.7C142.9,50.2,143.1,51.4,143.5,53.6z M140.1,55.3
				c0.4-0.1,0.6-0.1,1-0.2c0.3-0.1,0.5-0.2,0.6-0.4c0.1-0.2,0.2-0.5,0.1-0.7c-0.5-2.3-0.7-3.4-1.1-5.7c-0.1-0.3-0.2-0.5-0.4-0.6
				c-0.2-0.1-0.5-0.2-0.8-0.1c-0.4,0.1-0.6,0.1-1.1,0.2C139.1,50.8,139.5,52.3,140.1,55.3z"/>
			<path d="M148.1,55.6c-0.7,0.1-1.4,0-2-0.4c-0.6-0.4-1-1-1.1-1.7c-0.6-3.4-0.9-5-1.5-8.4c0.7-0.1,1-0.2,1.7-0.3
				c0.6,3.4,0.9,5,1.4,8.4c0,0.3,0.2,0.5,0.4,0.6c0.2,0.1,0.5,0.2,0.7,0.2c0.3,0,0.5-0.2,0.6-0.4c0.2-0.2,0.2-0.4,0.2-0.7
				c-0.5-3.4-0.8-5-1.3-8.4c0.7-0.1,1.1-0.2,1.9-0.3c0.5,3.4,0.8,5.1,1.3,8.4c0.1,0.7-0.1,1.4-0.5,2
				C149.4,55.1,148.9,55.5,148.1,55.6z"/>
			<path d="M154.9,54.6c-0.7,0.1-1.4-0.1-2-0.5c-0.6-0.4-0.9-1-1-1.7c-0.3-2.4-0.5-3.6-0.8-6c-0.1-0.7,0.1-1.4,0.6-2
				c0.5-0.6,1.1-0.9,1.9-1c0.8-0.1,1.5,0.1,2.1,0.5c0.6,0.5,0.9,1,1,1.8c0.1,0.5,0.1,0.7,0.1,1.2c-0.7,0.1-1.1,0.1-1.8,0.2
				c-0.1-0.5-0.1-0.8-0.2-1.3c0-0.3-0.2-0.5-0.4-0.6c-0.2-0.2-0.5-0.2-0.8-0.2c-0.3,0-0.5,0.2-0.7,0.4c-0.2,0.2-0.2,0.4-0.2,0.7
				c0.3,2.4,0.5,3.6,0.8,6c0,0.3,0.2,0.5,0.4,0.6c0.2,0.2,0.5,0.2,0.7,0.2c0.3,0,0.5-0.2,0.7-0.4s0.2-0.4,0.2-0.7
				c-0.1-0.6-0.1-0.9-0.2-1.5c0.7-0.1,1.1-0.1,1.8-0.2c0.1,0.6,0.1,0.9,0.2,1.5c0.1,0.7-0.1,1.4-0.6,1.9
				C156.2,54.2,155.6,54.5,154.9,54.6z"/>
			<path d="M159.7,44.6c-0.8,0.1-1.1,0.1-1.9,0.2c-0.1-0.7-0.1-1-0.2-1.7c2.2-0.2,3.4-0.3,5.6-0.5c0,0.7,0.1,1,0.1,1.7
				c-0.8,0.1-1.1,0.1-1.9,0.1c0.3,3.7,0.4,5.6,0.7,9.3c-0.7,0.1-1,0.1-1.7,0.1C160.2,50.2,160,48.3,159.7,44.6z"/>
			<path d="M167.3,42.3c0.8,0,1.5,0.2,2.1,0.7c0.6,0.5,0.9,1.1,0.9,1.8c0.1,2.4,0.1,3.6,0.2,6c0,0.7-0.2,1.4-0.7,1.9
				c-0.5,0.5-1.1,0.8-1.9,0.8c-0.7,0-1.4-0.2-1.9-0.7c-0.5-0.5-0.8-1.1-0.9-1.8c-0.1-2.4-0.2-3.6-0.4-6c0-0.7,0.2-1.4,0.7-1.9
				C165.9,42.6,166.5,42.3,167.3,42.3z M168.4,44.8c0-0.3-0.1-0.5-0.3-0.7c-0.2-0.2-0.4-0.3-0.7-0.2c-0.3,0-0.5,0.1-0.7,0.3
				c-0.2,0.2-0.3,0.4-0.3,0.7c0.1,2.4,0.2,3.6,0.3,6c0,0.3,0.1,0.5,0.3,0.7s0.4,0.3,0.7,0.2c0.3,0,0.5-0.1,0.7-0.3s0.3-0.4,0.3-0.7
				C168.5,48.5,168.5,47.3,168.4,44.8z"/>
			<path d="M179.3,50.7c0,0.7-0.3,1.3-0.8,1.8c-0.5,0.5-1.2,0.8-1.9,0.7c-1.1,0-1.6,0-2.7,0c0-4.4,0-6.6-0.1-11c1.1,0,1.7,0,2.8,0
				c0.8,0,1.5,0.3,2,0.8c0.5,0.5,0.8,1.2,0.8,1.9C179.4,47.2,179.4,48.4,179.3,50.7z M175.6,51.6c0.4,0,0.6,0,1,0
				c0.3,0,0.5-0.1,0.7-0.3c0.2-0.2,0.3-0.4,0.3-0.7c0-2.3,0.1-3.5,0.1-5.8c0-0.3-0.1-0.5-0.3-0.7c-0.2-0.2-0.4-0.3-0.7-0.3
				c-0.4,0-0.6,0-1.1,0C175.7,47,175.7,48.6,175.6,51.6z"/>
			<path d="M180.7,53.4c0.2-4.4,0.2-6.6,0.4-11c2,0.1,3.1,0.1,5.1,0.3c0,0.7-0.1,1-0.1,1.7c-1.3-0.1-2-0.1-3.3-0.2
				c-0.1,1.2-0.1,1.8-0.1,3c0.9,0,1.4,0.1,2.4,0.1c0,0.7-0.1,1-0.1,1.7c-0.9-0.1-1.4-0.1-2.3-0.1c-0.1,1.2-0.1,1.8-0.1,3
				c1.3,0.1,1.9,0.1,3.1,0.2c0,0.7-0.1,1-0.1,1.7C183.6,53.5,182.7,53.4,180.7,53.4z"/>
			<path d="M192.5,51.4c-0.1,0.8-0.3,1.4-0.8,1.9c-0.3,0.3-0.7,0.6-1.2,0.7c-0.3,0.1-0.6,0.1-0.9,0c-0.7-0.1-1.2-0.3-1.6-0.6
				c-0.3-0.3-0.6-0.7-0.8-1.1c-0.2-0.5-0.3-1-0.3-1.6c0.7,0,1,0,1.6,0c0,0.6,0.2,1.1,0.4,1.4c0.2,0.2,0.4,0.4,0.7,0.4
				c0.4,0,0.7-0.1,0.9-0.5c0.1-0.2,0.2-0.4,0.2-0.7c0-0.5-0.1-1-0.5-1.4c-0.3-0.3-0.8-0.9-1.4-1.5c-0.5-0.6-0.9-1.1-1.1-1.5
				c-0.2-0.5-0.3-1-0.3-1.6c0.1-1,0.5-1.7,1.3-2.2c0.5-0.3,1-0.4,1.7-0.3c0.6,0.1,1.2,0.2,1.6,0.5c0.3,0.2,0.6,0.6,0.8,0.9
				c0.2,0.4,0.3,0.8,0.3,1.3c-0.7,0-1,0.1-1.7,0.1c0-0.5-0.1-0.8-0.3-1.1c-0.1-0.2-0.4-0.3-0.7-0.3c-0.3,0-0.6,0.1-0.8,0.3
				c-0.2,0.2-0.2,0.5-0.3,0.8c0,0.5,0.1,1,0.6,1.6c0.2,0.2,0.4,0.5,0.7,0.8c0.4,0.4,0.6,0.6,0.7,0.7c0.4,0.4,0.7,0.9,0.9,1.3
				c0.1,0.2,0.2,0.4,0.2,0.5C192.5,50.8,192.6,51.1,192.5,51.4z"/>
			<path d="M196.3,45.2c-0.8-0.1-1.1-0.1-1.9-0.2c0.1-0.7,0.1-1,0.2-1.7c2.2,0.3,3.4,0.4,5.6,0.7c-0.1,0.7-0.1,1-0.2,1.7
				c-0.7-0.1-1.1-0.2-1.9-0.3c-0.5,3.7-0.7,5.6-1.2,9.3c-0.7-0.1-1-0.1-1.7-0.2C195.7,50.8,195.9,48.9,196.3,45.2z"/>
			<path d="M201,52.8c-0.3,1-0.5,1.5-0.8,2.4c-0.7-0.1-1-0.2-1.7-0.3c1.4-4.3,2.1-6.4,3.6-10.6c1,0.2,1.5,0.2,2.5,0.4
				c0.1,4.5,0.1,6.7,0,11.2c-0.7-0.1-1.1-0.2-1.8-0.3c0-1,0-1.5,0-2.6C202.1,52.9,201.7,52.9,201,52.8z M202.9,47
				c-0.5,1.7-0.8,2.5-1.3,4.2c0.5,0.1,0.8,0.1,1.3,0.2C202.8,49.7,202.9,48.8,202.9,47z"/>
			<path d="M208.3,56.8c-0.7-0.2-1.3-0.5-1.7-1.1c-0.4-0.6-0.6-1.3-0.4-2c0.4-2.4,0.7-3.5,1.1-5.9c0.1-0.7,0.5-1.3,1.2-1.7
				c0.6-0.4,1.4-0.5,2.1-0.4c0.8,0.2,1.4,0.6,1.8,1.2c0.4,0.6,0.6,1.3,0.4,2c-0.1,0.5-0.2,0.7-0.3,1.2c-0.7-0.2-1.1-0.2-1.8-0.4
				c0.1-0.5,0.2-0.8,0.3-1.3c0.1-0.3,0-0.5-0.2-0.7c-0.2-0.2-0.4-0.4-0.7-0.4s-0.5,0-0.8,0.1c-0.2,0.1-0.4,0.3-0.4,0.6
				c-0.5,2.4-0.7,3.5-1.2,5.9c-0.1,0.3,0,0.5,0.1,0.7c0.2,0.2,0.4,0.4,0.6,0.4s0.5,0,0.7-0.1s0.4-0.3,0.4-0.6
				c0.1-0.6,0.2-0.9,0.3-1.5c0.7,0.1,1.1,0.2,1.8,0.4c-0.1,0.6-0.2,0.9-0.3,1.5c-0.2,0.7-0.6,1.3-1.2,1.6
				C209.7,56.8,209,56.9,208.3,56.8z"/>
			<path d="M214.6,55.5c-0.4,0.9-0.6,1.4-1,2.4c-0.7-0.2-1-0.2-1.7-0.4c1.7-4.1,2.6-6.2,4.5-10.3c1,0.2,1.5,0.4,2.4,0.6
				c-0.3,4.5-0.5,6.7-0.9,11.2c-0.7-0.2-1-0.3-1.7-0.5c0.1-1,0.1-1.5,0.2-2.6C215.7,55.7,215.3,55.7,214.6,55.5z M216.9,49.9
				c-0.7,1.6-1,2.4-1.7,4.1c0.5,0.1,0.8,0.2,1.3,0.3C216.7,52.5,216.8,51.7,216.9,49.9z"/>
			<path d="M225.2,58.3c-0.2,0.7-0.7,1.2-1.3,1.5s-1.3,0.4-2,0.2c-1-0.3-1.5-0.5-2.6-0.7c1.2-4.2,1.8-6.4,3-10.6
				c1.1,0.3,1.7,0.5,2.7,0.8c0.8,0.2,1.3,0.7,1.7,1.3c0.4,0.7,0.5,1.3,0.2,2C226.2,55,225.8,56.1,225.2,58.3z M221.3,58.2
				c0.4,0.1,0.6,0.2,1,0.3c0.3,0.1,0.5,0.1,0.7-0.1c0.2-0.1,0.4-0.3,0.5-0.6c0.7-2.2,1-3.3,1.7-5.5c0.1-0.3,0-0.5-0.1-0.7
				c-0.1-0.2-0.3-0.4-0.6-0.5c-0.4-0.1-0.6-0.2-1-0.3C222.6,53.8,222.2,55.2,221.3,58.2z"/>
			<path d="M231.9,51.6c0.8,0.3,1.3,0.7,1.7,1.4c0.4,0.7,0.4,1.4,0.2,2c-0.8,2.3-1.2,3.4-2,5.7c-0.2,0.7-0.7,1.2-1.4,1.5
				s-1.4,0.3-2.1,0.1c-0.7-0.2-1.2-0.7-1.6-1.3c-0.3-0.7-0.4-1.3-0.2-2c0.7-2.3,1.1-3.4,1.8-5.7c0.2-0.7,0.7-1.2,1.4-1.5
				C230.5,51.3,231.2,51.3,231.9,51.6z M232,54.3c0.1-0.2,0.1-0.5-0.1-0.7c-0.1-0.2-0.3-0.4-0.6-0.5c-0.3-0.1-0.5-0.1-0.8,0
				c-0.3,0.1-0.4,0.3-0.5,0.5c-0.8,2.3-1.1,3.4-1.9,5.7c-0.1,0.3-0.1,0.5,0.1,0.7c0.1,0.2,0.3,0.4,0.6,0.5c0.3,0.1,0.5,0.1,0.8,0
				c0.2-0.1,0.4-0.3,0.5-0.5C230.8,57.8,231.2,56.6,232,54.3z"/>
		</g>
	</g>
	<g>
		<g>
			<path d="M121.7,286.4c0.8,0.3,1.3,0.7,1.6,1.4c0.3,0.6,0.3,1.3,0.1,2c-0.2,0.6-0.3,0.9-0.5,1.5c-0.2,0.7-0.7,1.2-1.3,1.5
				c-0.7,0.3-1.4,0.4-2.1,0.1c-0.4-0.1-0.6-0.2-1-0.3c-0.5,1.6-0.8,2.4-1.4,3.9c-0.7-0.2-1-0.4-1.7-0.6c1.5-4.1,2.2-6.2,3.7-10.4
				C120.1,285.9,120.6,286.1,121.7,286.4z M121.8,289.3c0.1-0.3,0.1-0.5,0-0.7s-0.3-0.4-0.6-0.5c-0.4-0.1-0.6-0.2-1-0.3
				c-0.5,1.3-0.7,2-1.2,3.3c0.4,0.1,0.6,0.2,1,0.3c0.3,0.1,0.5,0.1,0.8,0c0.2-0.1,0.4-0.3,0.5-0.5
				C121.5,290.2,121.6,289.9,121.8,289.3z"/>
			<path d="M128.1,288.5c0.9,0.3,1.5,0.7,1.8,1.3c0.3,0.5,0.3,1.2,0.1,2c-0.2,0.6-0.3,0.9-0.4,1.5c-0.2,0.8-0.7,1.3-1.4,1.6
				c0,2,0,3,0,5c-0.8-0.2-1.1-0.3-1.9-0.5c0-1.7,0.1-2.6,0.1-4.3c0,0-0.1,0-0.2,0c-0.4-0.1-0.6-0.2-1-0.3c-0.5,1.6-0.7,2.4-1.2,4
				c-0.7-0.2-1-0.3-1.7-0.5c1.3-4.2,2-6.3,3.3-10.5C126.5,288,127,288.2,128.1,288.5z M128.3,291.3c0.2-0.6,0-1-0.7-1.2
				c-0.4-0.1-0.6-0.2-1-0.3c-0.4,1.3-0.6,2-1,3.4c0.4,0.1,0.6,0.2,1,0.3c0.3,0.1,0.5,0.1,0.8-0.1c0.2-0.1,0.4-0.3,0.5-0.6
				C128,292.2,128.1,291.9,128.3,291.3z"/>
			<path d="M134.7,290.2c0.7,0.2,1.3,0.6,1.7,1.2c0.4,0.6,0.5,1.3,0.3,2c-0.5,2.3-0.8,3.5-1.4,5.9c-0.2,0.7-0.6,1.3-1.2,1.6
				c-0.7,0.4-1.4,0.5-2.2,0.3c-0.8-0.2-1.4-0.6-1.8-1.3c-0.4-0.6-0.5-1.3-0.3-2c0.6-2.3,0.9-3.5,1.6-5.8c0.2-0.7,0.6-1.2,1.3-1.6
				C133.4,290.1,134,290,134.7,290.2z M135,292.9c0.1-0.3,0-0.5-0.1-0.7c-0.1-0.2-0.3-0.4-0.6-0.4c-0.3-0.1-0.5,0-0.7,0.1
				c-0.2,0.1-0.4,0.3-0.5,0.6c-0.6,2.3-0.9,3.5-1.5,5.8c-0.1,0.3,0,0.5,0.1,0.7c0.2,0.2,0.4,0.4,0.6,0.4c0.3,0.1,0.5,0,0.8-0.1
				c0.2-0.1,0.4-0.3,0.5-0.6C134.2,296.4,134.5,295.3,135,292.9z"/>
			<path d="M142.4,300.6c-0.1,0.7-0.5,1.3-1.2,1.7c-0.6,0.4-1.4,0.5-2.1,0.4c-1.1-0.2-1.7-0.4-2.8-0.6c1-4.3,1.5-6.5,2.4-10.8
				c1,0.2,1.6,0.3,2.6,0.6c0.7,0.2,1.3,0.5,1.7,1.1c0.4,0.6,0.6,1.3,0.4,2C143.1,297.2,142.9,298.3,142.4,300.6z M138.5,300.8
				c0.4,0.1,0.6,0.1,1.1,0.2c0.3,0.1,0.5,0,0.8-0.1c0.2-0.1,0.4-0.3,0.4-0.6c0.5-2.3,0.7-3.4,1.1-5.7c0.1-0.3,0-0.5-0.1-0.7
				c-0.1-0.2-0.4-0.4-0.6-0.4c-0.4-0.1-0.6-0.1-1-0.2C139.5,296.3,139.1,297.8,138.5,300.8z"/>
			<path d="M146.3,304.1c-0.8-0.1-1.4-0.5-1.9-1.1c-0.5-0.6-0.6-1.3-0.5-2c0.6-3.4,0.9-5,1.5-8.4c0.7,0.1,1,0.2,1.6,0.3
				c-0.6,3.4-0.9,5-1.4,8.4c0,0.3,0,0.5,0.2,0.7s0.4,0.3,0.7,0.4c0.3,0,0.5,0,0.8-0.2c0.2-0.2,0.4-0.4,0.4-0.6
				c0.5-3.4,0.8-5,1.3-8.4c0.7,0.1,1,0.2,1.7,0.3c-0.5,3.4-0.8,5.1-1.3,8.4c-0.1,0.7-0.5,1.3-1.1,1.7
				C147.8,304.1,147.1,304.2,146.3,304.1z"/>
			<path d="M153.5,305.1c-0.8-0.1-1.4-0.4-1.9-1c-0.5-0.6-0.7-1.2-0.6-2c0.3-2.4,0.5-3.6,0.8-6c0.1-0.7,0.5-1.3,1-1.7
				c0.6-0.4,1.2-0.6,2-0.5c0.7,0.1,1.3,0.4,1.8,1c0.5,0.6,0.7,1.2,0.6,1.9c-0.1,0.5-0.1,0.7-0.1,1.2c-0.7-0.1-1.1-0.1-1.8-0.2
				c0.1-0.5,0.1-0.8,0.2-1.3c0-0.3,0-0.5-0.2-0.7c-0.2-0.2-0.4-0.3-0.7-0.4c-0.3,0-0.5,0-0.7,0.2c-0.2,0.2-0.3,0.4-0.4,0.6
				c-0.3,2.4-0.5,3.6-0.8,6c0,0.3,0,0.5,0.2,0.7c0.2,0.2,0.4,0.3,0.7,0.4c0.3,0,0.5,0,0.8-0.2c0.2-0.2,0.3-0.4,0.4-0.6
				c0.1-0.6,0.1-0.9,0.2-1.5c0.7,0.1,1.1,0.1,1.8,0.2c-0.1,0.6-0.1,0.9-0.2,1.5c-0.1,0.7-0.4,1.3-1,1.8
				C155,305.1,154.3,305.2,153.5,305.1z"/>
			<path d="M160.3,296.3c-0.7-0.1-1.1-0.1-1.8-0.2c0.1-0.7,0.1-1,0.2-1.7c2.1,0.2,3.2,0.3,5.3,0.4c0,0.7-0.1,1-0.1,1.7
				c-0.7,0-1.1-0.1-1.8-0.1c-0.3,3.7-0.4,5.6-0.7,9.3c-0.7-0.1-1.1-0.1-1.8-0.1C159.9,301.9,160,300,160.3,296.3z"/>
			<path d="M167.8,295c0.7,0,1.4,0.3,1.9,0.8c0.5,0.5,0.8,1.2,0.7,1.9c-0.1,2.4-0.1,3.6-0.2,6c0,0.7-0.3,1.3-0.9,1.8
				c-0.6,0.5-1.3,0.7-2,0.7c-0.8,0-1.5-0.3-2-0.9c-0.5-0.5-0.8-1.2-0.7-1.9c0.1-2.4,0.2-3.6,0.4-6c0-0.7,0.3-1.3,0.9-1.8
				C166.4,295.2,167.1,295,167.8,295z M168.6,297.6c0-0.3-0.1-0.5-0.3-0.7c-0.2-0.2-0.4-0.3-0.7-0.3c-0.3,0-0.5,0.1-0.7,0.2
				c-0.2,0.2-0.3,0.4-0.3,0.7c-0.1,2.4-0.2,3.6-0.3,6c0,0.3,0.1,0.5,0.3,0.7s0.4,0.3,0.7,0.3c0.3,0,0.5-0.1,0.7-0.2
				c0.2-0.2,0.3-0.4,0.3-0.7C168.5,301.2,168.5,300,168.6,297.6z"/>
			<path d="M179.5,303.6c0,0.7-0.2,1.4-0.8,1.9c-0.5,0.5-1.2,0.8-2,0.8c-1.1,0-1.7,0-2.8,0c0-4.4,0-6.6,0.1-11c1.1,0,1.6,0,2.7,0
				c0.7,0,1.4,0.2,1.9,0.7c0.5,0.5,0.8,1.1,0.8,1.8C179.4,300.2,179.4,301.3,179.5,303.6z M175.7,304.7c0.4,0,0.6,0,1.1,0
				c0.3,0,0.5-0.1,0.7-0.3c0.2-0.2,0.3-0.4,0.3-0.7c0-2.3-0.1-3.5-0.1-5.8c0-0.3-0.1-0.5-0.3-0.7c-0.2-0.2-0.4-0.3-0.7-0.3
				c-0.4,0-0.6,0-1,0C175.7,300.1,175.7,301.6,175.7,304.7z"/>
			<path d="M181.1,306.2c-0.2-4.4-0.2-6.6-0.4-11c1.9-0.1,2.9-0.1,4.8-0.2c0,0.7,0.1,1,0.1,1.7c-1.3,0.1-1.9,0.1-3.1,0.2
				c0.1,1.2,0.1,1.8,0.1,3c0.9,0,1.4-0.1,2.3-0.1c0,0.7,0.1,1,0.1,1.7c-0.9,0.1-1.4,0.1-2.4,0.1c0.1,1.2,0.1,1.8,0.1,3
				c1.3-0.1,2-0.1,3.3-0.2c0,0.7,0.1,1,0.1,1.7C184.2,306.1,183.2,306.1,181.1,306.2z"/>
			<path d="M193.1,302.6c0.1,0.8-0.1,1.4-0.4,2c-0.3,0.4-0.6,0.7-1.2,0.9c-0.3,0.1-0.6,0.2-1,0.2c-0.7,0.1-1.3-0.1-1.8-0.3
				c-0.4-0.2-0.7-0.6-1-1c-0.3-0.4-0.4-0.9-0.5-1.5c0.7-0.1,1-0.1,1.7-0.2c0.1,0.6,0.3,1.1,0.7,1.3c0.2,0.2,0.5,0.3,0.8,0.2
				c0.4,0,0.7-0.3,0.9-0.6c0.1-0.2,0.1-0.4,0.1-0.7c0-0.5-0.3-0.9-0.8-1.3c-0.4-0.3-0.9-0.7-1.7-1.3c-0.6-0.5-1.1-0.9-1.3-1.3
				c-0.3-0.4-0.5-1-0.5-1.5c-0.1-1,0.2-1.8,0.9-2.4c0.4-0.3,0.9-0.5,1.5-0.6c0.6-0.1,1.1,0,1.6,0.3c0.4,0.2,0.7,0.4,0.9,0.8
				c0.2,0.3,0.4,0.8,0.5,1.2c-0.6,0.2-1,0.3-1.6,0.5c-0.1-0.4-0.3-0.8-0.5-1c-0.2-0.2-0.4-0.2-0.7-0.2c-0.3,0-0.5,0.2-0.7,0.5
				c-0.1,0.2-0.2,0.5-0.1,0.8c0,0.5,0.3,1,0.8,1.5c0.2,0.2,0.5,0.4,0.8,0.6c0.4,0.3,0.7,0.5,0.9,0.6c0.5,0.4,0.8,0.7,1.1,1.1
				c0.1,0.2,0.2,0.3,0.3,0.5C193,302,193.1,302.3,193.1,302.6z"/>
			<path d="M195.4,295.7c-0.7,0.1-1.1,0.1-1.8,0.2c-0.1-0.7-0.1-1-0.2-1.7c2.1-0.2,3.1-0.4,5.2-0.7c0.1,0.7,0.1,1,0.2,1.7
				c-0.7,0.1-1.1,0.2-1.8,0.2c0.5,3.7,0.7,5.6,1.2,9.3c-0.7,0.1-1.1,0.1-1.8,0.2C196.1,301.3,195.9,299.4,195.4,295.7z"/>
			<path d="M201.9,301.7c0,1,0,1.5,0,2.6c-0.7,0.1-1.1,0.2-1.9,0.3c0.2-4.5,0.2-6.7,0.3-11.2c0.9-0.1,1.4-0.2,2.3-0.4
				c1.5,4.2,2.2,6.3,3.8,10.5c-0.7,0.1-1.1,0.2-1.9,0.3c-0.3-1-0.5-1.5-0.8-2.4C203,301.5,202.7,301.6,201.9,301.7z M201.9,295.6
				c0,1.8,0,2.6,0.1,4.4c0.5-0.1,0.8-0.1,1.3-0.2C202.7,298.2,202.4,297.3,201.9,295.6z"/>
			<path d="M210.6,302.8c-0.8,0.2-1.5,0-2.1-0.4s-1-1-1.2-1.7c-0.4-2.4-0.7-3.5-1.1-5.9c-0.1-0.7,0-1.4,0.4-2c0.4-0.6,1-1,1.7-1.1
				c0.7-0.2,1.4,0,2,0.4s1,0.9,1.2,1.7c0.1,0.5,0.2,0.7,0.3,1.2c-0.7,0.2-1.1,0.2-1.8,0.4c-0.1-0.5-0.2-0.8-0.3-1.3
				c-0.1-0.3-0.2-0.5-0.4-0.6c-0.2-0.1-0.5-0.2-0.7-0.1c-0.3,0.1-0.5,0.2-0.6,0.4c-0.1,0.2-0.2,0.5-0.1,0.7c0.5,2.4,0.7,3.5,1.2,5.9
				c0.1,0.3,0.2,0.5,0.4,0.6c0.2,0.1,0.5,0.2,0.8,0.1c0.3-0.1,0.5-0.2,0.7-0.4c0.2-0.2,0.2-0.5,0.2-0.7c-0.1-0.6-0.2-0.9-0.3-1.5
				c0.7-0.2,1.1-0.2,1.8-0.4c0.1,0.6,0.2,0.9,0.3,1.5c0.2,0.7,0,1.4-0.4,2C211.9,302.3,211.3,302.7,210.6,302.8z"/>
			<path d="M216,298.9c0.1,1,0.1,1.5,0.2,2.6c-0.7,0.2-1.1,0.3-1.8,0.4c-0.2-4.5-0.3-6.7-0.6-11.2c0.9-0.2,1.4-0.3,2.3-0.6
				c1.8,4.1,2.8,6.1,4.7,10.2c-0.7,0.2-1.1,0.3-1.8,0.5c-0.4-0.9-0.6-1.4-1-2.3C217.1,298.6,216.7,298.7,216,298.9z M215.5,292.9
				c0.2,1.7,0.3,2.6,0.4,4.4c0.5-0.1,0.8-0.2,1.3-0.3C216.5,295.3,216.1,294.5,215.5,292.9z"/>
			<path d="M226.9,295.7c0.2,0.7,0.1,1.4-0.2,2c-0.4,0.7-1,1.1-1.7,1.3c-1.1,0.3-1.6,0.5-2.7,0.8c-1.2-4.2-1.8-6.4-3-10.6
				c1-0.3,1.5-0.4,2.6-0.7c0.7-0.2,1.4-0.1,2,0.2c0.7,0.3,1.1,0.8,1.3,1.5C225.8,292.4,226.2,293.5,226.9,295.7z M223.5,297.8
				c0.4-0.1,0.6-0.2,1-0.3c0.3-0.1,0.5-0.2,0.6-0.5c0.1-0.2,0.2-0.5,0.1-0.7c-0.7-2.2-1-3.3-1.7-5.5c-0.1-0.3-0.2-0.4-0.5-0.6
				c-0.2-0.1-0.5-0.1-0.7-0.1c-0.4,0.1-0.6,0.2-1,0.3C222.2,293.4,222.6,294.8,223.5,297.8z"/>
			<path d="M228.3,286.3c0.7-0.2,1.4-0.2,2.1,0.1c0.7,0.3,1.1,0.8,1.4,1.5c0.8,2.3,1.2,3.4,2,5.7c0.2,0.7,0.2,1.4-0.2,2
				s-0.9,1.1-1.7,1.4c-0.8,0.3-1.5,0.2-2.2-0.1c-0.7-0.3-1.1-0.8-1.4-1.5c-0.7-2.3-1.1-3.4-1.8-5.7c-0.2-0.7-0.2-1.4,0.2-2
				C227.1,287,227.6,286.5,228.3,286.3z M230,288.5c-0.1-0.2-0.3-0.4-0.5-0.5c-0.2-0.1-0.5-0.1-0.8,0c-0.3,0.1-0.5,0.3-0.6,0.5
				c-0.1,0.2-0.1,0.5-0.1,0.7c0.8,2.3,1.1,3.4,1.9,5.7c0.1,0.3,0.3,0.4,0.5,0.5c0.3,0.1,0.5,0.1,0.8,0s0.5-0.3,0.6-0.5
				c0.1-0.2,0.2-0.5,0.1-0.7C231.2,291.9,230.8,290.7,230,288.5z"/>
		</g>
	</g>
</g>
</svg>
